<svg width="457" height="500" viewBox="0 0 570 623" fill="#e4e4e4" xmlns="http://www.w3.org/2000/svg">
<circle cx="285" cy="5" r="5"/>
<circle cx="285" cy="163" r="5"/>
<circle cx="285" cy="479" r="5"/>
<circle cx="285" cy="45" r="5"/>
<circle cx="285" cy="361" r="5"/>
<circle cx="285" cy="376" r="5"/>
<circle cx="285" cy="598" r="5"/>
<circle cx="125" cy="321" r="5"/>
<circle cx="125" cy="84" r="5"/>
<circle cx="125" cy="242" r="5"/>
<circle cx="125" cy="558" r="5"/>
<circle cx="445" cy="84" r="5"/>
<circle cx="445" cy="400" r="5"/>
<circle cx="445" cy="242" r="5"/>
<circle cx="445" cy="558" r="5"/>
<circle cx="125" cy="45" r="5"/>
<circle cx="125" cy="361" r="5"/>
<circle cx="125" cy="282" r="5"/>
<circle cx="285" cy="25" r="5"/>
<circle cx="285" cy="499" r="5"/>
<circle cx="285" cy="578" r="5"/>
<circle cx="285" cy="144" r="5"/>
<circle cx="285" cy="460" r="5"/>
<circle cx="285" cy="618" r="5"/>
<circle cx="125" cy="341" r="5"/>
<circle cx="125" cy="262" r="5"/>
<circle cx="125" cy="578" r="5"/>
<circle cx="445" cy="420" r="5"/>
<circle cx="445" cy="578" r="5"/>
<circle cx="125" cy="65" r="5"/>
<circle cx="125" cy="381" r="5"/>
<circle cx="125" cy="223" r="5"/>
<circle cx="125" cy="539" r="5"/>
<circle cx="125" cy="302" r="5"/>
<circle cx="445" cy="65" r="5"/>
<circle cx="445" cy="381" r="5"/>
<circle cx="445" cy="223" r="5"/>
<circle cx="445" cy="539" r="5"/>
<circle cx="45" cy="163" r="5"/>
<circle cx="45" cy="479" r="5"/>
<circle cx="365" cy="163" r="5"/>
<circle cx="365" cy="479" r="5"/>
<circle cx="45" cy="203" r="5"/>
<circle cx="45" cy="519" r="5"/>
<circle cx="45" cy="124" r="5"/>
<circle cx="365" cy="45" r="5"/>
<circle cx="365" cy="440" r="5"/>
<circle cx="365" cy="598" r="5"/>
<circle cx="205" cy="163" r="5"/>
<circle cx="205" cy="479" r="5"/>
<circle cx="525" cy="163" r="5"/>
<circle cx="525" cy="479" r="5"/>
<circle cx="205" cy="45" r="5"/>
<circle cx="205" cy="203" r="5"/>
<circle cx="205" cy="440" r="5"/>
<circle cx="205" cy="598" r="5"/>
<circle cx="525" cy="519" r="5"/>
<circle cx="525" cy="124" r="5"/>
<circle cx="525" cy="440" r="5"/>
<circle cx="45" cy="183" r="5"/>
<circle cx="45" cy="499" r="5"/>
<circle cx="365" cy="25" r="5"/>
<circle cx="365" cy="183" r="5"/>
<circle cx="365" cy="578" r="5"/>
<circle cx="45" cy="144" r="5"/>
<circle cx="45" cy="460" r="5"/>
<circle cx="365" cy="460" r="5"/>
<circle cx="205" cy="25" r="5"/>
<circle cx="205" cy="183" r="5"/>
<circle cx="205" cy="578" r="5"/>
<circle cx="525" cy="183" r="5"/>
<circle cx="525" cy="499" r="5"/>
<circle cx="525" cy="420" r="5"/>
<circle cx="205" cy="460" r="5"/>
<circle cx="525" cy="144" r="5"/>
<circle cx="525" cy="460" r="5"/>
<circle cx="5" cy="163" r="5"/>
<circle cx="325" cy="5" r="5"/>
<circle cx="325" cy="321" r="5"/>
<circle cx="325" cy="163" r="5"/>
<circle cx="325" cy="479" r="5"/>
<circle cx="5" cy="203" r="5"/>
<circle cx="325" cy="45" r="5"/>
<circle cx="325" cy="356" r="5"/>
<circle cx="325" cy="282" r="5"/>
<circle cx="325" cy="598" r="5"/>
<circle cx="165" cy="400" r="5"/>
<circle cx="165" cy="242" r="5"/>
<circle cx="165" cy="558" r="5"/>
<circle cx="485" cy="84" r="5"/>
<circle cx="485" cy="400" r="5"/>
<circle cx="485" cy="558" r="5"/>
<circle cx="165" cy="45" r="5"/>
<circle cx="165" cy="203" r="5"/>
<circle cx="165" cy="440" r="5"/>
<circle cx="165" cy="598" r="5"/>
<circle cx="485" cy="519" r="5"/>
<circle cx="485" cy="124" r="5"/>
<circle cx="5" cy="183" r="5"/>
<circle cx="325" cy="25" r="5"/>
<circle cx="325" cy="341" r="5"/>
<circle cx="325" cy="578" r="5"/>
<circle cx="5" cy="460" r="5"/>
<circle cx="325" cy="144" r="5"/>
<circle cx="325" cy="460" r="5"/>
<circle cx="325" cy="302" r="5"/>
<circle cx="325" cy="618" r="5"/>
<circle cx="165" cy="183" r="5"/>
<circle cx="165" cy="420" r="5"/>
<circle cx="165" cy="578" r="5"/>
<circle cx="485" cy="104" r="5"/>
<circle cx="485" cy="420" r="5"/>
<circle cx="165" cy="65" r="5"/>
<circle cx="165" cy="223" r="5"/>
<circle cx="485" cy="539" r="5"/>
<circle cx="85" cy="84" r="5"/>
<circle cx="85" cy="558" r="5"/>
<circle cx="405" cy="400" r="5"/>
<circle cx="405" cy="558" r="5"/>
<circle cx="85" cy="203" r="5"/>
<circle cx="85" cy="519" r="5"/>
<circle cx="85" cy="124" r="5"/>
<circle cx="405" cy="45" r="5"/>
<circle cx="405" cy="203" r="5"/>
<circle cx="405" cy="440" r="5"/>
<circle cx="405" cy="598" r="5"/>
<circle cx="245" cy="5" r="5"/>
<circle cx="245" cy="321" r="5"/>
<circle cx="245" cy="163" r="5"/>
<circle cx="245" cy="479" r="5"/>
<circle cx="565" cy="163" r="5"/>
<circle cx="245" cy="45" r="5"/>
<circle cx="250" cy="356" r="5"/>
<circle cx="245" cy="282" r="5"/>
<circle cx="245" cy="598" r="5"/>
<circle cx="565" cy="440" r="5"/>
<circle cx="85" cy="499" r="5"/>
<circle cx="85" cy="104" r="5"/>
<circle cx="405" cy="183" r="5"/>
<circle cx="405" cy="420" r="5"/>
<circle cx="405" cy="578" r="5"/>
<circle cx="85" cy="223" r="5"/>
<circle cx="85" cy="539" r="5"/>
<circle cx="405" cy="65" r="5"/>
<circle cx="405" cy="223" r="5"/>
<circle cx="245" cy="25" r="5"/>
<circle cx="245" cy="341" r="5"/>
<circle cx="245" cy="183" r="5"/>
<circle cx="245" cy="578" r="5"/>
<circle cx="245" cy="144" r="5"/>
<circle cx="245" cy="460" r="5"/>
<circle cx="245" cy="302" r="5"/>
<circle cx="245" cy="618" r="5"/>
<circle cx="565" cy="460" r="5"/>
<circle cx="305" cy="5" r="5"/>
<circle cx="305" cy="163" r="5"/>
<circle cx="305" cy="479" r="5"/>
<circle cx="305" cy="45" r="5"/>
<circle cx="305" cy="361" r="5"/>
<circle cx="305" cy="282" r="5"/>
<circle cx="305" cy="598" r="5"/>
<circle cx="145" cy="321" r="5"/>
<circle cx="145" cy="84" r="5"/>
<circle cx="145" cy="400" r="5"/>
<circle cx="145" cy="242" r="5"/>
<circle cx="145" cy="558" r="5"/>
<circle cx="465" cy="84" r="5"/>
<circle cx="465" cy="400" r="5"/>
<circle cx="465" cy="558" r="5"/>
<circle cx="145" cy="45" r="5"/>
<circle cx="145" cy="361" r="5"/>
<circle cx="145" cy="203" r="5"/>
<circle cx="145" cy="282" r="5"/>
<circle cx="465" cy="519" r="5"/>
<circle cx="305" cy="25" r="5"/>
<circle cx="305" cy="262" r="5"/>
<circle cx="305" cy="578" r="5"/>
<circle cx="305" cy="144" r="5"/>
<circle cx="305" cy="460" r="5"/>
<circle cx="305" cy="618" r="5"/>
<circle cx="145" cy="341" r="5"/>
<circle cx="145" cy="420" r="5"/>
<circle cx="145" cy="262" r="5"/>
<circle cx="145" cy="578" r="5"/>
<circle cx="465" cy="104" r="5"/>
<circle cx="465" cy="420" r="5"/>
<circle cx="145" cy="65" r="5"/>
<circle cx="145" cy="381" r="5"/>
<circle cx="145" cy="223" r="5"/>
<circle cx="145" cy="302" r="5"/>
<circle cx="465" cy="65" r="5"/>
<circle cx="465" cy="381" r="5"/>
<circle cx="465" cy="539" r="5"/>
<circle cx="65" cy="479" r="5"/>
<circle cx="385" cy="163" r="5"/>
<circle cx="65" cy="203" r="5"/>
<circle cx="65" cy="519" r="5"/>
<circle cx="65" cy="124" r="5"/>
<circle cx="385" cy="45" r="5"/>
<circle cx="385" cy="203" r="5"/>
<circle cx="385" cy="440" r="5"/>
<circle cx="385" cy="598" r="5"/>
<circle cx="225" cy="163" r="5"/>
<circle cx="225" cy="479" r="5"/>
<circle cx="545" cy="163" r="5"/>
<circle cx="545" cy="479" r="5"/>
<circle cx="225" cy="45" r="5"/>
<circle cx="225" cy="598" r="5"/>
<circle cx="545" cy="440" r="5"/>
<circle cx="65" cy="183" r="5"/>
<circle cx="65" cy="499" r="5"/>
<circle cx="65" cy="104" r="5"/>
<circle cx="385" cy="25" r="5"/>
<circle cx="385" cy="183" r="5"/>
<circle cx="385" cy="420" r="5"/>
<circle cx="385" cy="578" r="5"/>
<circle cx="65" cy="223" r="5"/>
<circle cx="65" cy="539" r="5"/>
<circle cx="65" cy="144" r="5"/>
<circle cx="385" cy="65" r="5"/>
<circle cx="385" cy="460" r="5"/>
<circle cx="225" cy="25" r="5"/>
<circle cx="225" cy="183" r="5"/>
<circle cx="225" cy="578" r="5"/>
<circle cx="545" cy="182" r="5"/>
<circle cx="545" cy="420" r="5"/>
<circle cx="225" cy="144" r="5"/>
<circle cx="225" cy="460" r="5"/>
<circle cx="225" cy="618" r="5"/>
<circle cx="545" cy="144" r="5"/>
<circle cx="545" cy="460" r="5"/>
<circle cx="25" cy="163" r="5"/>
<circle cx="25" cy="479" r="5"/>
<circle cx="345" cy="321" r="5"/>
<circle cx="225" cy="320" r="5"/>
<circle cx="345" cy="163" r="5"/>
<circle cx="345" cy="479" r="5"/>
<circle cx="25" cy="203" r="5"/>
<circle cx="345" cy="45" r="5"/>
<circle cx="345" cy="598" r="5"/>
<circle cx="185" cy="163" r="5"/>
<circle cx="505" cy="400" r="5"/>
<circle cx="185" cy="45" r="5"/>
<circle cx="185" cy="203" r="5"/>
<circle cx="185" cy="440" r="5"/>
<circle cx="185" cy="598" r="5"/>
<circle cx="505" cy="519" r="5"/>
<circle cx="505" cy="124" r="5"/>
<circle cx="505" cy="440" r="5"/>
<circle cx="25" cy="183" r="5"/>
<circle cx="25" cy="499" r="5"/>
<circle cx="345" cy="25" r="5"/>
<circle cx="345" cy="341" r="5"/>
<circle cx="225" cy="340" r="5"/>
<circle cx="345" cy="183" r="5"/>
<circle cx="345" cy="578" r="5"/>
<circle cx="25" cy="144" r="5"/>
<circle cx="25" cy="460" r="5"/>
<circle cx="345" cy="144" r="5"/>
<circle cx="345" cy="460" r="5"/>
<circle cx="345" cy="302" r="5"/>
<circle cx="225" cy="301" r="5"/>
<circle cx="345" cy="618" r="5"/>
<circle cx="185" cy="25" r="5"/>
<circle cx="185" cy="183" r="5"/>
<circle cx="185" cy="420" r="5"/>
<circle cx="185" cy="578" r="5"/>
<circle cx="505" cy="499" r="5"/>
<circle cx="505" cy="104" r="5"/>
<circle cx="505" cy="420" r="5"/>
<circle cx="185" cy="65" r="5"/>
<circle cx="185" cy="460" r="5"/>
<circle cx="505" cy="539" r="5"/>
<circle cx="505" cy="144" r="5"/>
<circle cx="105" cy="321" r="5"/>
<circle cx="105" cy="84" r="5"/>
<circle cx="105" cy="242" r="5"/>
<circle cx="105" cy="558" r="5"/>
<circle cx="425" cy="84" r="5"/>
<circle cx="425" cy="400" r="5"/>
<circle cx="425" cy="242" r="5"/>
<circle cx="425" cy="558" r="5"/>
<circle cx="105" cy="361" r="5"/>
<circle cx="105" cy="203" r="5"/>
<circle cx="105" cy="519" r="5"/>
<circle cx="105" cy="282" r="5"/>
<circle cx="425" cy="45" r="5"/>
<circle cx="430" cy="362" r="5"/>
<circle cx="425" cy="203" r="5"/>
<circle cx="265" cy="5" r="5"/>
<circle cx="265" cy="163" r="5"/>
<circle cx="265" cy="479" r="5"/>
<circle cx="265" cy="45" r="5"/>
<circle cx="265" cy="361" r="5"/>
<circle cx="265" cy="282" r="5"/>
<circle cx="265" cy="598" r="5"/>
<circle cx="105" cy="341" r="5"/>
<circle cx="105" cy="104" r="5"/>
<circle cx="105" cy="262" r="5"/>
<circle cx="425" cy="420" r="5"/>
<circle cx="425" cy="578" r="5"/>
<circle cx="105" cy="65" r="5"/>
<circle cx="105" cy="223" r="5"/>
<circle cx="105" cy="539" r="5"/>
<circle cx="105" cy="302" r="5"/>
<circle cx="425" cy="65" r="5"/>
<circle cx="425" cy="381" r="5"/>
<circle cx="425" cy="223" r="5"/>
<circle cx="265" cy="25" r="5"/>
<circle cx="265" cy="262" r="5"/>
<circle cx="265" cy="578" r="5"/>
<circle cx="265" cy="144" r="5"/>
<circle cx="265" cy="460" r="5"/>
<circle cx="265" cy="618" r="5"/>
</svg>
