<svg width="349" height="71" viewBox="0 0 349 71" fill="none" xmlns="http://www.w3.org/2000/svg">
<path d="M66.1769 46.9117L65.2456 48.6464C59.4463 59.4163 48.0763 66.1085 35.5719 66.1085C23.0674 66.1085 11.6889 59.4163 5.88965 48.6464L9.45388 46.8377C14.559 56.3087 24.5659 62.2033 35.5719 62.2033C45.9005 62.2033 55.3487 57.0157 60.6909 48.5395L52.0215 44.1494C48.398 49.4932 42.2601 52.7406 35.5719 52.7406C24.7098 52.7406 15.8712 44.1576 15.8712 33.6096C15.8712 31.1104 16.3622 28.7262 17.2681 26.5393L4.95837 20.3076L5.88965 18.5729C11.6889 7.80298 23.0589 1.11084 35.5719 1.11084C48.0848 1.11084 59.4548 7.80298 65.2456 18.5729L61.6814 20.3816C56.5763 10.9106 46.5694 5.01596 35.5719 5.01596C25.2432 5.01596 15.795 10.2036 10.4529 18.6798L19.1307 23.0782C22.661 17.8987 28.7143 14.4787 35.5719 14.4787C43.2591 14.4787 50.2945 18.8606 53.4947 25.6514L49.8288 27.2792C47.2805 21.8778 41.6844 18.3838 35.5719 18.3838C26.928 18.3838 19.8926 25.2157 19.8926 33.6096C19.8926 42.0036 26.928 48.8355 35.5719 48.8355C41.4304 48.8355 46.7556 45.7032 49.4732 40.6553L50.4045 38.9288L66.1769 46.9117Z" fill="#FFE459"/>
<path d="M35.5733 39.8837C35.5479 39.8837 35.5225 39.8837 35.4971 39.8837C31.9667 39.8426 29.139 37.0227 29.1814 33.5944C29.2152 30.9307 30.9847 28.5958 33.5922 27.7655L34.261 29.7632C32.534 30.3141 31.3656 31.8597 31.3402 33.6273C31.3148 35.8963 33.1859 37.7626 35.5225 37.7955C37.8591 37.8201 39.781 36.0032 39.8148 33.7341C39.8402 31.9254 38.6126 30.2894 36.8432 29.755L37.4866 27.749C40.1619 28.5629 42.0075 31.0293 41.9737 33.7588C41.9229 37.146 39.0613 39.8837 35.5733 39.8837Z" fill="#FFE459"/>
<path d="M98.3218 49.6202C96.0221 49.6202 93.9613 49.2469 92.1394 48.5002C90.3176 47.7536 88.8541 46.6485 87.749 45.185C86.6738 43.7216 86.1064 41.9594 86.0466 39.8986H94.2002C94.3197 41.0634 94.7229 41.9594 95.4098 42.5866C96.0968 43.184 96.9928 43.4826 98.0978 43.4826C99.2328 43.4826 100.129 43.2288 100.786 42.721C101.443 42.1834 101.771 41.4517 101.771 40.5258C101.771 39.7493 101.503 39.1072 100.965 38.5994C100.457 38.0917 99.8152 37.6736 99.0386 37.345C98.292 37.0165 97.2168 36.6432 95.813 36.225C93.7821 35.5978 92.1245 34.9706 90.8402 34.3434C89.556 33.7162 88.4509 32.7904 87.525 31.5658C86.5992 30.3413 86.1362 28.7434 86.1362 26.7722C86.1362 23.8453 87.1965 21.5605 89.317 19.9178C91.4376 18.2453 94.2002 17.409 97.605 17.409C101.07 17.409 103.862 18.2453 105.983 19.9178C108.103 21.5605 109.238 23.8602 109.387 26.817H101.099C101.04 25.8016 100.666 25.0101 99.9794 24.4426C99.2925 23.8453 98.4114 23.5466 97.3362 23.5466C96.4104 23.5466 95.6637 23.8005 95.0962 24.3082C94.5288 24.7861 94.245 25.488 94.245 26.4138C94.245 27.4293 94.7229 28.2208 95.6786 28.7882C96.6344 29.3557 98.1277 29.968 100.159 30.625C102.19 31.312 103.832 31.969 105.087 32.5962C106.371 33.2234 107.476 34.1344 108.402 35.329C109.328 36.5237 109.791 38.0618 109.791 39.9434C109.791 41.7354 109.328 43.3632 108.402 44.8266C107.506 46.2901 106.192 47.4549 104.459 48.321C102.727 49.1872 100.681 49.6202 98.3218 49.6202ZM129.782 49.3066L122.166 38.8234V49.3066H114.505V16.1546H122.166V34.4778L129.737 24.3082H139.19L128.796 36.8522L139.28 49.3066H129.782ZM146.052 21.7098C144.708 21.7098 143.603 21.3216 142.736 20.545C141.9 19.7386 141.482 18.753 141.482 17.5882C141.482 16.3936 141.9 15.408 142.736 14.6314C143.603 13.825 144.708 13.4218 146.052 13.4218C147.366 13.4218 148.441 13.825 149.277 14.6314C150.143 15.408 150.576 16.3936 150.576 17.5882C150.576 18.753 150.143 19.7386 149.277 20.545C148.441 21.3216 147.366 21.7098 146.052 21.7098ZM149.86 24.3082V49.3066H142.199V24.3082H149.86ZM163.072 16.1546V49.3066H155.411V16.1546H163.072ZM176.285 16.1546V49.3066H168.624V16.1546H176.285ZM180.537 33.537C180.537 30.4309 181.209 27.6682 182.553 25.249C183.897 22.8 185.764 20.9034 188.153 19.5594C190.572 18.1856 193.305 17.4986 196.352 17.4986C200.085 17.4986 203.281 18.4842 205.939 20.4554C208.597 22.4266 210.374 25.1146 211.27 28.5194H202.848C202.22 27.2053 201.324 26.2048 200.16 25.5178C199.025 24.8309 197.725 24.4874 196.262 24.4874C193.903 24.4874 191.991 25.3088 190.528 26.9514C189.064 28.5941 188.332 30.7893 188.332 33.537C188.332 36.2848 189.064 38.48 190.528 40.1226C191.991 41.7653 193.903 42.5866 196.262 42.5866C197.725 42.5866 199.025 42.2432 200.16 41.5562C201.324 40.8693 202.22 39.8688 202.848 38.5546H211.27C210.374 41.9594 208.597 44.6474 205.939 46.6186C203.281 48.56 200.085 49.5306 196.352 49.5306C193.305 49.5306 190.572 48.8586 188.153 47.5146C185.764 46.1408 183.897 44.2442 182.553 41.825C181.209 39.4058 180.537 36.6432 180.537 33.537ZM227.341 49.665C224.892 49.665 222.681 49.1424 220.71 48.097C218.769 47.0517 217.231 45.5584 216.096 43.617C214.991 41.6757 214.438 39.4058 214.438 36.8074C214.438 34.2389 215.006 31.984 216.141 30.0426C217.276 28.0714 218.829 26.5632 220.8 25.5178C222.771 24.4725 224.981 23.9498 227.43 23.9498C229.879 23.9498 232.089 24.4725 234.061 25.5178C236.032 26.5632 237.585 28.0714 238.72 30.0426C239.855 31.984 240.422 34.2389 240.422 36.8074C240.422 39.376 239.84 41.6458 238.675 43.617C237.54 45.5584 235.972 47.0517 233.971 48.097C232 49.1424 229.79 49.665 227.341 49.665ZM227.341 43.0346C228.804 43.0346 230.044 42.497 231.059 41.4218C232.104 40.3466 232.627 38.8085 232.627 36.8074C232.627 34.8064 232.119 33.2682 231.104 32.193C230.118 31.1178 228.894 30.5802 227.43 30.5802C225.937 30.5802 224.697 31.1178 223.712 32.193C222.726 33.2384 222.233 34.7765 222.233 36.8074C222.233 38.8085 222.711 40.3466 223.667 41.4218C224.653 42.497 225.877 43.0346 227.341 43.0346ZM269.171 24.3082V49.3066H261.51V45.9018C260.734 47.0069 259.674 47.9029 258.33 48.5898C257.015 49.2469 255.552 49.5754 253.939 49.5754C252.028 49.5754 250.34 49.1573 248.877 48.321C247.413 47.4549 246.278 46.2154 245.472 44.6026C244.666 42.9898 244.262 41.0933 244.262 38.913V24.3082H251.878V37.8826C251.878 39.5552 252.311 40.8544 253.178 41.7802C254.044 42.7061 255.209 43.169 256.672 43.169C258.165 43.169 259.345 42.7061 260.211 41.7802C261.077 40.8544 261.51 39.5552 261.51 37.8826V24.3082H269.171ZM289.906 24.0394C292.833 24.0394 295.162 24.9952 296.895 26.9066C298.657 28.7882 299.538 31.3866 299.538 34.7018V49.3066H291.922V35.7322C291.922 34.0597 291.489 32.7605 290.623 31.8346C289.757 30.9088 288.592 30.4458 287.128 30.4458C285.665 30.4458 284.5 30.9088 283.634 31.8346C282.768 32.7605 282.335 34.0597 282.335 35.7322V49.3066H274.674V24.3082H282.335V27.6234C283.111 26.5184 284.157 25.6522 285.471 25.025C286.785 24.368 288.263 24.0394 289.906 24.0394ZM318.794 42.8106V49.3066H314.897C312.119 49.3066 309.954 48.6346 308.401 47.2906C306.848 45.9168 306.071 43.6917 306.071 40.6154V30.6698H303.025V24.3082H306.071V18.2154H313.732V24.3082H318.749V30.6698H313.732V40.705C313.732 41.4517 313.911 41.9893 314.269 42.3178C314.628 42.6464 315.225 42.8106 316.061 42.8106H318.794ZM348.597 24.3082L332.917 61.1786H324.674L330.409 48.4554L320.239 24.3082H328.796L334.575 39.9434L340.309 24.3082H348.597Z" fill="#FFE459"/>
</svg>
