<svg width="249" height="51" viewBox="0 0 249 51" fill="none" xmlns="http://www.w3.org/2000/svg">
<path d="M47.1513 34.0919L46.4862 35.3309C42.3438 43.0237 34.2224 47.8038 25.2906 47.8038C16.3589 47.8038 8.23138 43.0237 4.08902 35.3309L6.63491 34.039C10.2814 40.804 17.4292 45.0145 25.2906 45.0145C32.6682 45.0145 39.4169 41.309 43.2327 35.2546L37.0404 32.1188C34.4522 35.9358 30.0679 38.2554 25.2906 38.2554C17.532 38.2554 11.2187 32.1246 11.2187 24.5904C11.2187 22.8052 11.5694 21.1022 12.2165 19.5402L3.42383 15.0889L4.08902 13.8498C8.23138 6.15705 16.3528 1.37695 25.2906 1.37695C34.2284 1.37695 42.3498 6.15705 46.4862 13.8498L43.9403 15.1418C40.2938 8.37681 33.146 4.16632 25.2906 4.16632C17.913 4.16632 11.1643 7.87178 7.34848 13.9262L13.5469 17.0679C16.0686 13.3683 20.3924 10.9254 25.2906 10.9254C30.7815 10.9254 35.8067 14.0554 38.0926 18.9059L35.4741 20.0687C33.6539 16.2105 29.6567 13.7148 25.2906 13.7148C19.1164 13.7148 14.0911 18.5947 14.0911 24.5904C14.0911 30.5861 19.1164 35.466 25.2906 35.466C29.4753 35.466 33.279 33.2286 35.2202 29.623L35.8854 28.3898L47.1513 34.0919Z" fill="#16243F"/>
<path d="M25.2916 29.0719C25.2734 29.0719 25.2553 29.0719 25.2372 29.0719C22.7155 29.0425 20.6957 27.0283 20.7259 24.5795C20.7501 22.6769 22.014 21.0091 23.8765 20.416L24.3543 21.843C23.1206 22.2365 22.2861 23.3405 22.268 24.603C22.2498 26.2238 23.5863 27.5568 25.2553 27.5803C26.9243 27.5979 28.297 26.3001 28.3212 24.6794C28.3394 23.3875 27.4625 22.2189 26.1987 21.8372L26.6583 20.4043C28.5692 20.9857 29.8875 22.7474 29.8633 24.697C29.827 27.1164 27.783 29.0719 25.2916 29.0719Z" fill="#16243F"/>
<path d="M70.112 36.0267C68.4693 36.0267 66.9973 35.7601 65.696 35.2267C64.3947 34.6934 63.3493 33.9041 62.56 32.8587C61.792 31.8134 61.3867 30.5547 61.344 29.0827H67.168C67.2533 29.9147 67.5413 30.5547 68.032 31.0027C68.5227 31.4294 69.1627 31.6427 69.952 31.6427C70.7627 31.6427 71.4027 31.4614 71.872 31.0987C72.3413 30.7147 72.576 30.1921 72.576 29.5307C72.576 28.9761 72.384 28.5174 72 28.1547C71.6373 27.7921 71.1787 27.4934 70.624 27.2587C70.0907 27.0241 69.3227 26.7574 68.32 26.4587C66.8693 26.0107 65.6853 25.5627 64.768 25.1147C63.8507 24.6667 63.0613 24.0054 62.4 23.1307C61.7387 22.2561 61.408 21.1147 61.408 19.7067C61.408 17.6161 62.1653 15.9841 63.68 14.8107C65.1947 13.6161 67.168 13.0187 69.6 13.0187C72.0747 13.0187 74.0693 13.6161 75.584 14.8107C77.0987 15.9841 77.9093 17.6267 78.016 19.7387H72.096C72.0533 19.0134 71.7867 18.4481 71.296 18.0427C70.8053 17.6161 70.176 17.4027 69.408 17.4027C68.7467 17.4027 68.2133 17.5841 67.808 17.9467C67.4027 18.2881 67.2 18.7894 67.2 19.4507C67.2 20.1761 67.5413 20.7414 68.224 21.1467C68.9067 21.5521 69.9733 21.9894 71.424 22.4587C72.8747 22.9494 74.048 23.4187 74.944 23.8667C75.8613 24.3147 76.6507 24.9654 77.312 25.8187C77.9733 26.6721 78.304 27.7707 78.304 29.1147C78.304 30.3947 77.9733 31.5574 77.312 32.6027C76.672 33.6481 75.7333 34.4801 74.496 35.0987C73.2587 35.7174 71.7973 36.0267 70.112 36.0267ZM92.5835 35.8027L87.1435 28.3147V35.8027H81.6715V12.1227H87.1435V25.2107L92.5515 17.9467H99.3035L91.8795 26.9067L99.3675 35.8027H92.5835ZM104.205 16.0907C103.245 16.0907 102.455 15.8134 101.837 15.2587C101.239 14.6827 100.941 13.9787 100.941 13.1467C100.941 12.2934 101.239 11.5894 101.837 11.0347C102.455 10.4587 103.245 10.1707 104.205 10.1707C105.143 10.1707 105.911 10.4587 106.509 11.0347C107.127 11.5894 107.437 12.2934 107.437 13.1467C107.437 13.9787 107.127 14.6827 106.509 15.2587C105.911 15.8134 105.143 16.0907 104.205 16.0907ZM106.925 17.9467V35.8027H101.453V17.9467H106.925ZM116.362 12.1227V35.8027H110.89V12.1227H116.362ZM125.8 12.1227V35.8027H120.328V12.1227H125.8ZM128.837 24.5387C128.837 22.3201 129.317 20.3467 130.277 18.6187C131.237 16.8694 132.571 15.5147 134.277 14.5547C136.005 13.5734 137.957 13.0827 140.133 13.0827C142.8 13.0827 145.083 13.7867 146.981 15.1947C148.88 16.6027 150.149 18.5227 150.789 20.9547H144.773C144.325 20.0161 143.685 19.3014 142.853 18.8107C142.043 18.3201 141.115 18.0747 140.069 18.0747C138.384 18.0747 137.019 18.6614 135.973 19.8347C134.928 21.0081 134.405 22.5761 134.405 24.5387C134.405 26.5014 134.928 28.0694 135.973 29.2427C137.019 30.4161 138.384 31.0027 140.069 31.0027C141.115 31.0027 142.043 30.7574 142.853 30.2667C143.685 29.7761 144.325 29.0614 144.773 28.1227H150.789C150.149 30.5547 148.88 32.4747 146.981 33.8827C145.083 35.2694 142.8 35.9627 140.133 35.9627C137.957 35.9627 136.005 35.4827 134.277 34.5227C132.571 33.5414 131.237 32.1867 130.277 30.4587C129.317 28.7307 128.837 26.7574 128.837 24.5387ZM162.268 36.0587C160.519 36.0587 158.94 35.6854 157.532 34.9387C156.146 34.1921 155.047 33.1254 154.236 31.7387C153.447 30.3521 153.052 28.7307 153.052 26.8747C153.052 25.0401 153.458 23.4294 154.268 22.0427C155.079 20.6347 156.188 19.5574 157.596 18.8107C159.004 18.0641 160.583 17.6907 162.332 17.6907C164.082 17.6907 165.66 18.0641 167.068 18.8107C168.476 19.5574 169.586 20.6347 170.396 22.0427C171.207 23.4294 171.612 25.0401 171.612 26.8747C171.612 28.7094 171.196 30.3307 170.364 31.7387C169.554 33.1254 168.434 34.1921 167.004 34.9387C165.596 35.6854 164.018 36.0587 162.268 36.0587ZM162.268 31.3227C163.314 31.3227 164.199 30.9387 164.924 30.1707C165.671 29.4027 166.044 28.3041 166.044 26.8747C166.044 25.4454 165.682 24.3467 164.956 23.5787C164.252 22.8107 163.378 22.4267 162.332 22.4267C161.266 22.4267 160.38 22.8107 159.676 23.5787C158.972 24.3254 158.62 25.4241 158.62 26.8747C158.62 28.3041 158.962 29.4027 159.644 30.1707C160.348 30.9387 161.223 31.3227 162.268 31.3227ZM192.147 17.9467V35.8027H186.675V33.3707C186.121 34.1601 185.363 34.8001 184.403 35.2907C183.465 35.7601 182.419 35.9947 181.267 35.9947C179.902 35.9947 178.697 35.6961 177.651 35.0987C176.606 34.4801 175.795 33.5947 175.219 32.4427C174.643 31.2907 174.355 29.9361 174.355 28.3787V17.9467H179.795V27.6427C179.795 28.8374 180.105 29.7654 180.723 30.4267C181.342 31.0881 182.174 31.4187 183.219 31.4187C184.286 31.4187 185.129 31.0881 185.747 30.4267C186.366 29.7654 186.675 28.8374 186.675 27.6427V17.9467H192.147ZM206.958 17.7547C209.048 17.7547 210.712 18.4374 211.95 19.8027C213.208 21.1467 213.838 23.0027 213.838 25.3707V35.8027H208.398V26.1067C208.398 24.9121 208.088 23.9841 207.47 23.3227C206.851 22.6614 206.019 22.3307 204.974 22.3307C203.928 22.3307 203.096 22.6614 202.478 23.3227C201.859 23.9841 201.55 24.9121 201.55 26.1067V35.8027H196.078V17.9467H201.55V20.3147C202.104 19.5254 202.851 18.9067 203.79 18.4587C204.728 17.9894 205.784 17.7547 206.958 17.7547ZM227.592 31.1627V35.8027H224.808C222.824 35.8027 221.278 35.3227 220.168 34.3627C219.059 33.3814 218.504 31.7921 218.504 29.5947V22.4907H216.328V17.9467H218.504V13.5947H223.976V17.9467H227.56V22.4907H223.976V29.6587C223.976 30.1921 224.104 30.5761 224.36 30.8107C224.616 31.0454 225.043 31.1627 225.64 31.1627H227.592ZM248.88 17.9467L237.68 44.2827H231.792L235.888 35.1947L228.624 17.9467H234.736L238.864 29.1147L242.96 17.9467H248.88Z" fill="#16243F"/>
</svg>
