<svg width="31" height="31" viewBox="0 0 31 31" fill="none" xmlns="http://www.w3.org/2000/svg">
<path d="M15.6211 20.374C15.6211 20.5072 15.724 20.6162 15.8481 20.6162H21.4487C21.5729 20.6162 21.6758 20.5072 21.6758 20.374V18.9209C21.6758 18.7877 21.5729 18.6787 21.4487 18.6787H15.8481C15.724 18.6787 15.6211 18.7877 15.6211 18.9209V20.374ZM9.7208 20.5587L15.5333 15.6847C15.6483 15.5878 15.6483 15.4092 15.5333 15.3123L9.7208 10.4413C9.68571 10.4115 9.6428 10.3923 9.59715 10.3862C9.55151 10.38 9.50505 10.387 9.46329 10.4065C9.42154 10.4259 9.38624 10.4569 9.36159 10.4958C9.33693 10.5348 9.32397 10.5799 9.32422 10.626V12.5241C9.32422 12.5968 9.35449 12.6634 9.41201 12.7088L12.736 15.5L9.41201 18.2912C9.38495 18.3139 9.3631 18.3421 9.34795 18.374C9.3328 18.4058 9.3247 18.4406 9.32422 18.4759V20.374C9.32422 20.5799 9.56338 20.6919 9.7208 20.5587ZM26.6406 3.39062H4.35938C3.82354 3.39062 3.39062 3.82354 3.39062 4.35938V26.6406C3.39062 27.1765 3.82354 27.6094 4.35938 27.6094H26.6406C27.1765 27.6094 27.6094 27.1765 27.6094 26.6406V4.35938C27.6094 3.82354 27.1765 3.39062 26.6406 3.39062ZM25.4297 25.4297H5.57031V5.57031H25.4297V25.4297Z" fill="#522C78"/>
</svg>
