<?xml version="1.0" encoding="utf-8"?>
<svg version="1.1" id="Layer_1" xmlns="http://www.w3.org/2000/svg" x="0px" y="0px"
     viewBox="0 0 811.7 800" style="enable-background:new 0 0 811.7 800;" xml:space="preserve">
<style type="text/css">
	.st0{fill:#fff;}
</style>
    <g>
	<path class="st0" d="M765.7,561.8l-11,21.1c-68.5,131-202.8,212.4-350.5,212.4S122.1,713.9,53.6,582.9l42.1-22
		C156,676.1,274.2,747.8,404.2,747.8c122,0,233.6-63.1,296.7-166.2l-102.4-53.4c-42.8,65-115.3,104.5-194.3,104.5
		c-128.3,0-232.7-104.4-232.7-232.7c0-30.4,5.8-59.4,16.5-86L42.6,238.2l11-21.1C122.1,86.1,256.4,4.7,404.2,4.7
		s282.1,81.4,350.5,212.4l-42.1,22C652.3,123.9,534.1,52.2,404.2,52.2c-122,0-233.6,63.1-296.7,166.2L210,271.9
		c41.7-63,113.2-104.6,194.2-104.6c90.8,0,173.9,53.3,211.7,135.9L572.6,323c-30.1-65.7-96.2-108.2-168.4-108.2
		C302.1,214.8,219,297.9,219,400c0,102.1,83.1,185.2,185.2,185.2c69.2,0,132.1-38.1,164.2-99.5l11-21L765.7,561.8z"/>
</g>
    <g>
	<path class="st0" d="M404.2,476.3c-0.3,0-0.6,0-0.9,0c-41.7-0.5-75.1-34.8-74.6-76.5c0.4-32.4,21.3-60.8,52.1-70.9l7.9,24.3
		c-20.4,6.7-34.2,25.5-34.5,47c-0.3,27.6,21.8,50.3,49.4,50.7c27.6,0.3,50.3-21.8,50.7-49.4c0.3-22-14.2-41.9-35.1-48.4l7.6-24.4
		c31.6,9.9,53.4,39.9,53,73.1C479.2,443,445.4,476.3,404.2,476.3z"/>
</g>
</svg>
