<svg width="29" height="29" viewBox="0 0 29 29" fill="none" xmlns="http://www.w3.org/2000/svg">
<path d="M14.5 29C6.45703 29 0 22.4533 0 14.5C0 6.45703 6.45703 0 14.5 0C22.543 0 29 6.45703 29 14.5C29 22.4533 22.543 29 14.5 29ZM14.5 2.436C7.859 2.436 2.43056 7.859 2.43056 14.5009C2.43056 21.1428 7.859 26.5703 14.5 26.5703C21.141 26.5703 26.5694 21.1419 26.5694 14.5009C26.5694 7.85991 21.141 2.436 14.5 2.436ZM21.6132 15.902H11.1342C10.9122 15.9032 10.6987 15.8164 10.5404 15.6607C10.3821 15.505 10.292 15.293 10.2896 15.0709V13.8484C10.2896 13.3763 10.662 13.0038 11.1342 13.0038H21.702C22.1696 13.0038 22.5421 13.3817 22.5421 13.8484V15.0619C22.4523 15.5295 22.0744 15.902 21.6122 15.902H21.6132ZM18.8989 11.2239H8.32572C8.10355 11.2256 7.88979 11.139 7.73142 10.9832C7.57304 10.8274 7.48301 10.615 7.48109 10.3929V9.17034C7.48109 8.79244 7.859 8.41997 8.32572 8.41997H18.8935C19.2714 8.41997 19.6439 8.79788 19.6439 9.17034V10.3838C19.6439 10.8514 19.2714 11.2239 18.898 11.2239H18.8989ZM8.32662 17.7761H18.8998C19.3675 17.7761 19.7399 18.1486 19.7399 18.6162V19.8297C19.7409 20.0524 19.6535 20.2664 19.4968 20.4248C19.3402 20.5831 19.1271 20.6728 18.9044 20.6743H8.32662C7.859 20.58 7.48653 20.2067 7.48653 19.7399V18.5219C7.482 18.1495 7.859 17.7761 8.32662 17.7761Z" fill="#522C78"/>
</svg>
