<svg width="32" height="32" viewBox="0 0 32 32" fill="none" xmlns="http://www.w3.org/2000/svg">
<path d="M13.3333 17.3333C16.2789 17.3333 18.6667 14.9455 18.6667 12C18.6667 9.05449 16.2789 6.66667 13.3333 6.66667C10.3878 6.66667 8 9.05449 8 12C8 14.9455 10.3878 17.3333 13.3333 17.3333Z" fill="#522C78"/>
<path d="M21.8533 20.7467C19.6133 19.6 16.7067 18.6667 13.3333 18.6667C9.96 18.6667 7.05333 19.6 4.81333 20.7467C4.16274 21.0818 3.61774 21.5906 3.2388 22.2166C2.85986 22.8427 2.66183 23.5615 2.66667 24.2933V28H24V24.2933C24 22.8 23.1867 21.4267 21.8533 20.7467ZM27.1467 1.33333L25.2667 3.21333C27.0149 4.96491 27.9968 7.33857 27.9968 9.81333C27.9968 12.2881 27.0149 14.6617 25.2667 16.4133L27.1467 18.2933C28.2626 17.181 29.148 15.8594 29.7521 14.4042C30.3562 12.949 30.6672 11.3889 30.6672 9.81333C30.6672 8.23773 30.3562 6.67763 29.7521 5.22246C29.148 3.76728 28.2626 2.44565 27.1467 1.33333Z" fill="#522C78"/>
<path d="M23.3867 14.5333C24.6355 13.2826 25.3369 11.5874 25.3369 9.81999C25.3369 8.05256 24.6355 6.35736 23.3867 5.10666L21.5067 6.98666C22.2557 7.73666 22.6765 8.75332 22.6765 9.81333C22.6765 10.8733 22.2557 11.89 21.5067 12.64L23.3867 14.5333Z" fill="#522C78"/>
</svg>
