<svg width="25" height="24" viewBox="0 0 25 24" fill="none" xmlns="http://www.w3.org/2000/svg">
<rect x="0.106445" y="0.000610352" width="24" height="24" rx="12" fill="#D9D9D9"/>
<path d="M12.1192 8.55568C11.6041 8.55568 11.1721 8.38122 10.8232 8.0323C10.4743 7.68338 10.2998 7.25138 10.2998 6.7363C10.2998 6.22123 10.4743 5.78923 10.8232 5.44031C11.1721 5.09139 11.6041 4.91693 12.1192 4.91693C12.6176 4.91693 13.0413 5.09139 13.3902 5.44031C13.7392 5.78923 13.9136 6.22123 13.9136 6.7363C13.9136 7.25138 13.7392 7.68338 13.3902 8.0323C13.0413 8.38122 12.6176 8.55568 12.1192 8.55568ZM13.5149 10.3751L13.5149 19.0842H10.6736L10.6736 10.3751H13.5149Z" fill="#8D8D8D"/>
</svg>
